<svg width="120" height="120" viewBox="0 0 120 120" xmlns="http://www.w3.org/2000/svg">
  <defs>
    <linearGradient id="logoGradient" x1="0%" y1="0%" x2="100%" y2="100%">
      <stop offset="0%" style="stop-color:#6366F1;" />
      <stop offset="100%" style="stop-color:#A855F7;" />
    </linearGradient>
    <filter id="softShadow" x="-20%" y="-20%" width="140%" height="140%">
      <feGaussianBlur in="SourceAlpha" stdDeviation="3"/>
      <feOffset dx="2" dy="3" result="offsetblur"/>
      <feComponentTransfer>
        <feFuncA type="linear" slope="0.3"/>
      </feComponentTransfer>
      <feMerge> 
        <feMergeNode/>
        <feMergeNode in="SourceGraphic"/> 
      </feMerge>
    </filter>
  </defs>
  <g filter="url(#softShadow)">
    <rect x="20" y="20" width="80" height="80" rx="20" fill="url(#logoGradient)"/>
  </g>
  <g transform="translate(38 38)" stroke="#FFFFFF" stroke-width="3.5" stroke-linecap="round" stroke-linejoin="round" fill="none">
    <path d="M38 13h-5a2 2 0 0 0-2 2v5M6 27h5a2 2 0 0 0 2-2v-5"/>
    <path d="M22 6v3a2 2 0 0 1-2 2H8a2 2 0 0 1-2-2V6a2 2 0 0 1 2-2h12a2 2 0 0 1 2 2z"/>
    <path d="M38 38a2 2 0 0 1-2-2V24a2 2 0 0 0-2-2H22a2 2 0 0 0-2 2v12a2 2 0 0 0 2 2h14a2 2 0 0 1 2 2z"/>
    <path d="M14 22H6a2 2 0 0 0-2 2v12a2 2 0 0 0 2 2h8"/>
  </g>
</svg>